<svg id="icons" xmlns="http://www.w3.org/2000/svg" viewBox="0 0 128 128"><defs><style>.cls-1{fill:#ffe300;}.cls-2{fill:#303442;opacity:0.08;}.cls-3{fill:#92d5ed;}.cls-4{fill:none;stroke:#303442;stroke-linecap:round;stroke-linejoin:round;stroke-width:4px;}</style></defs><title>message-multiple</title><path class="cls-1" d="M110,52.5a24.994,24.994,0,0,1-7.06,17.16,2.94364,2.94364,0,0,0-.75,2.51l1.7,10.08a1.48118,1.48118,0,0,1-.61,1.47,1.54364,1.54364,0,0,1-1.61.1l-9.75-5.18a3.02772,3.02772,0,0,0-2.44-.19c-.82.3-1.64.58-2.48.82a23.54955,23.54955,0,0,0,1-6.77C88,56.79,72.3,44,53,44a42.23518,42.23518,0,0,0-12,1.72C44.75,33.27,58.57,24,75,24,94.3,24,110,36.79,110,52.5Z"/><path class="cls-2" d="M103.37,83.72a1.53758,1.53758,0,0,1-.89.28h-.06c-.04,0-.07995-.01-.13-.01a1.495,1.495,0,0,1-.53-.17l-9.75-5.18a2.986,2.986,0,0,0-1.16-.34,1.88759,1.88759,0,0,0-.53-.01,2.976,2.976,0,0,0-.84.16c-.82.3-1.63995.58-2.48.81995a23.54869,23.54869,0,0,0,1-6.77,22.76215,22.76215,0,0,0-.25-3.42c.61-.2,1.22-.41,1.82-.62995a3.02749,3.02749,0,0,1,2.44.19l9.75,5.18a1.53653,1.53653,0,0,0,.72.18h.02a.18829.18829,0,0,0,.08-.02l1.4,8.27A1.481,1.481,0,0,1,103.37,83.72Z"/><path class="cls-3" d="M88,72.5a23.54955,23.54955,0,0,1-1,6.77C83.26,91.73,69.44,101,53,101a41.55573,41.55573,0,0,1-14.48-2.55,3.02772,3.02772,0,0,0-2.44.19l-9.75,5.18a1.54364,1.54364,0,0,1-1.61-.1,1.48118,1.48118,0,0,1-.61-1.47l1.7-10.08a2.94364,2.94364,0,0,0-.75-2.51A24.994,24.994,0,0,1,18,72.5c0-12.28,9.59-22.78,23-26.78A42.23518,42.23518,0,0,1,53,44C72.3,44,88,56.79,88,72.5Z"/><path class="cls-2" d="M87,69.27C83.26,81.73,69.44,91,53,91a41.55569,41.55569,0,0,1-14.48-2.55,3.02746,3.02746,0,0,0-2.44.19l-9.75,5.18a1.53694,1.53694,0,0,1-.72.18c-.03571,0-.07032-.01349-.106-.01587L24.11,102.25a1.48118,1.48118,0,0,0,.61,1.47,1.54368,1.54368,0,0,0,1.61005.1l9.75-5.18a3.02746,3.02746,0,0,1,2.44-.19A41.55569,41.55569,0,0,0,53,101c16.44,0,30.26-9.27,34-21.73a23.22864,23.22864,0,0,0,.45172-11.7594C87.3219,68.10333,87.17352,68.69073,87,69.27Z"/><path class="cls-4" d="M87,79.27a23.54955,23.54955,0,0,0,1-6.77C88,56.79,72.3,44,53,44a42.23518,42.23518,0,0,0-12,1.72c-13.41,4-23,14.5-23,26.78a24.994,24.994,0,0,0,7.06,17.16,2.94364,2.94364,0,0,1,.75,2.51l-1.7,10.08a1.48118,1.48118,0,0,0,.61,1.47,1.54364,1.54364,0,0,0,1.61.1l9.75-5.18a3.02772,3.02772,0,0,1,2.44-.19A41.55573,41.55573,0,0,0,53,101C69.44,101,83.26,91.73,87,79.27Z"/><path class="cls-4" d="M87,79.27c.84-.24,1.66-.52,2.48-.82a3.02772,3.02772,0,0,1,2.44.19l9.75,5.18a1.54364,1.54364,0,0,0,1.61-.1,1.48118,1.48118,0,0,0,.61-1.47l-1.7-10.08a2.94364,2.94364,0,0,1,.75-2.51A24.994,24.994,0,0,0,110,52.5C110,36.79,94.3,24,75,24c-16.43,0-30.25,9.27-34,21.72"/></svg>